<?xml version="1.0" standalone="no"?>
<!DOCTYPE svg PUBLIC "-//W3C//DTD SVG 20010904//EN"
 "http://www.w3.org/TR/2001/REC-SVG-20010904/DTD/svg10.dtd">
<svg version="1.0" xmlns="http://www.w3.org/2000/svg"
 width="512.000000pt" height="512.000000pt" viewBox="0 0 512.000000 512.000000"
 preserveAspectRatio="xMidYMid meet">
<metadata>
Created by potrace 1.14, written by Peter Selinger 2001-2017
</metadata>
<g transform="translate(0.000000,512.000000) scale(0.100000,-0.100000)"
fill="#000000" stroke="none">
<path d="M1938 4955 c-2 -1 -41 -5 -88 -9 -268 -19 -566 -103 -820 -231 -560
-280 -932 -758 -1014 -1302 -13 -88 -14 -341 -1 -418 27 -169 57 -269 123
-420 29 -67 116 -224 144 -260 4 -5 36 -45 70 -89 35 -43 69 -87 77 -98 13
-18 0 -34 -191 -226 -113 -114 -213 -221 -222 -238 -20 -41 -14 -115 14 -154
12 -17 40 -40 61 -51 40 -20 52 -20 1132 -16 601 2 1101 6 1112 9 11 3 47 9
80 13 33 3 102 16 154 27 51 11 102 21 113 23 34 7 192 58 233 75 22 10 51 21
65 25 44 13 255 122 339 174 395 248 690 634 792 1037 37 148 44 209 44 379
-1 163 -7 217 -40 352 -115 475 -474 901 -971 1151 -144 73 -370 158 -473 178
-12 3 -51 11 -85 19 -61 14 -85 18 -161 29 -22 3 -60 8 -85 12 -43 6 -396 14
-402 9z"/>
<path d="M4479 3163 c-3 -105 -14 -206 -34 -318 -37 -201 -143 -457 -273 -659
-139 -215 -385 -469 -582 -600 -359 -238 -686 -369 -1075 -430 -55 -8 -118
-18 -140 -22 -22 -3 -285 -8 -585 -10 -300 -3 -557 -6 -572 -7 l-27 -2 29 -45
c34 -52 29 -45 101 -135 287 -359 737 -624 1231 -724 90 -19 115 -23 243 -39
33 -4 546 -7 1140 -7 l1080 0 34 24 c58 42 82 126 56 196 -4 11 -102 115 -218
232 l-210 212 26 34 c15 20 33 41 40 49 7 7 38 47 68 88 212 291 309 597 304
960 -5 330 -116 632 -337 923 -61 79 -272 297 -289 297 -5 0 -9 -8 -10 -17z"/>
</g>
</svg>
